<svg xmlns="http://www.w3.org/2000/svg" width="16" height="16" viewBox="0 0 16 16">
    <g fill="#2B2B32" fill-rule="nonzero">
        <path d="M14.252 1.113L7.344 8.021v-3.83a.453.453 0 1 0-.907 0v4.918a.453.453 0 0 0 0 .091v.136h.023l.136.136h5.213a.453.453 0 1 0 0-.907H7.98l6.908-6.817a.453.453 0 0 0-.635-.635z"/>
        <path d="M2.924 15.796h9.815a2.72 2.72 0 0 0 2.72-2.72V7.137a.453.453 0 0 0-.907 0v5.939a1.813 1.813 0 0 1-1.813 1.813H2.924a1.813 1.813 0 0 1-1.813-1.813V3.261c0-1.001.812-1.813 1.813-1.813h5.939a.453.453 0 0 0 0-.907H2.924a2.72 2.72 0 0 0-2.72 2.72v9.815a2.72 2.72 0 0 0 2.72 2.72z"/>
    </g>
</svg>
