<?xml version="1.0" ?><svg id="Layer_1" style="enable-background:new 0 0 132 132;" version="1.1" viewBox="0 0 132 132" xml:space="preserve" xmlns="http://www.w3.org/2000/svg" xmlns:xlink="http://www.w3.org/1999/xlink"><style type="text/css">
	.st0{fill:none;stroke:#231F20;stroke-width:2;stroke-linecap:round;stroke-linejoin:round;stroke-miterlimit:10;}
	.st1{fill:none;stroke:#231F20;stroke-width:2;stroke-miterlimit:10;}
	.st2{fill:none;stroke:#231F20;stroke-width:0.75;stroke-miterlimit:10;}
</style><g><path class="st0" d="M75.721405,46.1564255c-0.6703949-15.9553089,12.8379822-23.7653637,19.634079-26.6731853   c2.0402222-0.8729439,4.2009506-1.4065552,6.380806-1.8222141C120.9895935,13.9897709,123.4532471,2,123.4532471,2   s17.281189,48.0297966-25.6238403,62.5698318"/><path class="st0" d="M80.2114639,30.9761696c0,0-23.8569145-7.4044743-38.1585922,30.2566032"/><path class="st0" d="M20.4811783,102.8268127c-1.0726261-60.4245796,26.1115456-51.5765839,26.1115456-51.5765839"/><path class="st0" d="M111.0786972,57.827961c0,0,4.1510849,33.9150581-39.9457474,31.7698021"/><path class="st0" d="M83.9647751,89.0864944c0,0,2.6616516,22.3213272-61.3383446,13.7403183"/><path class="st0" d="M107.721405,30.3863487c0,0,6.7932968,7.7309647-41.8324051,37.5829201   c0,0-54.3463669,29.4944153-60.7821236,62.0307312"/></g></svg>