<svg xmlns:dc="http://purl.org/dc/elements/1.1/" xmlns:cc="http://creativecommons.org/ns#" xmlns:rdf="http://www.w3.org/1999/02/22-rdf-syntax-ns#" xmlns:svg="http://www.w3.org/2000/svg" xmlns="http://www.w3.org/2000/svg" xmlns:sodipodi="http://sodipodi.sourceforge.net/DTD/sodipodi-0.dtd" xmlns:inkscape="http://www.inkscape.org/namespaces/inkscape" version="1.1" x="0px" y="0px" viewBox="0 0 100 125"><g transform="translate(0,-952.36218)"><path style="text-indent:0;text-transform:none;direction:ltr;block-progression:tb;baseline-shift:baseline;color:#000000;enable-background:accumulate;" d="m 13,966.3622 c -3.8434068,0 -6.9999998,3.15659 -6.9999998,7 l 0,58 c 0,3.8434 3.156589,7 6.9999998,7 l 74,0 c 3.84341,0 7,-3.1566 7,-7 l 0,-50.96875 c -1e-4,-1.04717 -0.95283,-1.9999 -2,-2 -0.0358,-2.04777 -0.45932,-4.43313 -1.5312,-5.875 -1.73475,-1.93949 -4.20845,-2.12237 -6.40625,-2.125 l -45.75,0 c -2.2813,-2.76282 -3.396509,-3.90936 -5.21875,-4.03125 -6.998424,-4e-5 -14.102118,0 -20.0938,0 z m 0,4 19.84375,0 c 2.960709,2.46678 5.143682,6.86319 7.59375,9.53125 1.202096,1.27067 2.572554,2.47402 4.5625,2.46875 13.68783,0 34.42583,0.0304 45,0.0312 l 0,48.9687 c 0,1.6966 -1.30339,3 -3,3 l -74,0 c -1.696609,0 -3,-1.3034 -3,-3 l 0,-57.99995 c -0.03807,-1.82136 1.583087,-2.95903 3,-2.99995 z m 28.1875,4.03125 42.875,0 c 2.94748,2.4e-4 3.89635,1.61265 3.875,4 -10.99671,-0.005 -29.87522,-0.0312 -42.9375,-0.0312 -0.01004,3e-5 -0.751921,-0.26284 -1.65625,-1.21875 -0.823177,-0.92677 -1.550454,-1.90643 -2.15625,-2.75005 z" fill="#000000" fill-opacity="1" stroke="none" marker="none" visibility="visible" display="inline" overflow="visible"/></g></svg>